<?xml version="1.0" encoding="iso-8859-1"?>
<!-- Generator: Adobe Illustrator 19.0.0, SVG Export Plug-In . SVG Version: 6.00 Build 0)  -->
<svg version="1.1" id="Layer_1" xmlns="http://www.w3.org/2000/svg" xmlns:xlink="http://www.w3.org/1999/xlink" x="0px" y="0px"
	 viewBox="0 0 393.309 393.309" style="enable-background:new 0 0 393.309 393.309;" xml:space="preserve">
<circle style="fill:#75DA59;" cx="196.655" cy="196.655" r="196.655"/>
<path style="fill:#FFFFFC;" d="M319.547,300.606v-4.267h-50.618c-0.388-2.521-1.422-4.913-2.844-6.982l35.75-35.749l-3.038-3.038
	l-35.75,35.749c-2.004-1.487-4.331-2.457-6.982-2.844v-50.618h-4.267v50.618c-2.521,0.388-4.913,1.422-6.982,2.844l-35.749-35.749
	l-3.038,3.038l35.749,35.749c-1.487,2.004-2.457,4.331-2.844,6.982h-50.618v4.267h50.618c0.388,2.521,1.422,4.913,2.844,6.982
	l-35.749,35.75l3.038,3.038l35.749-35.75c2.004,1.487,4.331,2.457,6.982,2.844v50.618h4.267v-50.618
	c2.521-0.388,4.913-1.422,6.982-2.844l35.749,35.75l3.038-3.038l-35.749-35.75c1.487-2.004,2.457-4.331,2.844-6.982H319.547z"/>
<path style="fill:#F1F3F7;" d="M253.931,372.622c-40.857,0-74.085-33.228-74.085-74.085s33.228-74.085,74.085-74.085
	s74.085,33.228,74.085,74.085S294.788,372.622,253.931,372.622z M253.931,241.455c-31.418,0-57.018,25.6-57.018,57.018
	c0,31.418,25.6,57.018,57.018,57.018s57.018-25.6,57.018-57.018S285.35,241.455,253.931,241.455z"/>
<path style="fill:#FFFFFC;" d="M144.743,331.572v-2.457h-28.832c-0.259-1.487-0.776-2.78-1.616-3.943l20.428-20.428l-1.681-1.681
	l-20.428,20.428c-1.164-0.84-2.457-1.422-3.943-1.616v-28.832h-2.521v28.832c-1.487,0.259-2.78,0.776-3.943,1.616l-20.428-20.428
	l-1.681,1.681l20.428,20.428c-0.84,1.164-1.422,2.457-1.616,3.943H70.077v2.457h28.832c0.259,1.487,0.776,2.78,1.616,3.943
	l-20.428,20.428l1.681,1.681l20.428-20.428c1.164,0.84,2.457,1.422,3.943,1.616v28.832h2.457v-28.832
	c1.487-0.259,2.78-0.776,3.943-1.616l20.428,20.428l1.681-1.681l-20.428-20.428c0.84-1.164,1.422-2.457,1.616-3.943H144.743z"/>
<path style="fill:#F1F3F7;" d="M107.378,372.622c-23.273,0-42.214-18.941-42.214-42.214c0-23.273,18.941-42.214,42.214-42.214
	s42.214,18.941,42.214,42.214C149.592,353.681,130.651,372.622,107.378,372.622z M107.378,297.956
	c-17.907,0-32.453,14.545-32.453,32.453s14.545,32.453,32.453,32.453s32.453-14.545,32.453-32.453
	C139.83,312.501,125.35,297.956,107.378,297.956z"/>
<g>
	<path style="fill:#DEDEDF;" d="M229.236,206.675v-0.065c-59.345,5.56-90.182,35.685-105.891,61.349
		c-18.683,30.707-20.234,60.962-20.234,62.19l8.598,0.388c0-0.323,1.487-29.349,19.006-58.182
		c21.01-34.457,55.079-53.721,101.366-57.406C230.788,212.364,230.012,209.584,229.236,206.675z"/>
	
		<rect x="174.627" y="235.111" transform="matrix(0.2776 0.9607 -0.9607 0.2776 399.9282 -55.229)" style="fill:#DEDEDF;" width="124.122" height="6.4"/>
</g>
<path style="fill:#646B79;" d="M313.859,81.972c-4.655,6.594-7.952,15.321-6.465,26.634c18.941,6.335,20.622-10.602,20.622-10.602
	S320.194,92.186,313.859,81.972z"/>
<path style="fill:#4F5565;" d="M95.095,123.733c-3.038,29.026,10.537,54.497,24.113,56.048
	c20.558,2.392,25.341,32.517,28.186,44.412c2.844,11.96,17.713,8.598,29.608,9.568c11.96,0.905,7.628-14.869,7.628-14.869
	c-23.402,0.905-5.689-23.402,3.814-29.608c9.568-6.077,10.537-12.154,10.537-12.154C168.016,131.232,123.863,123.216,95.095,123.733
	z"/>
<path style="fill:#F0582F;" d="M229.236,20.687c-29.156-0.646-81.842,22.044-113.907,57.665
	c-12.735,14.222-18.683,30.19-20.234,45.253c28.638-0.453,72.857,7.564,103.822,53.527l12.024,6.012h16.614
	c2.844-2.651-3.814-11.184-3.814-11.184s-21.463-8.598-3.297-21.463c18.166-12.929,15.774-26.246,15.774-26.246
	s-2.004-5.689-19.911-28.251C198.594,73.568,228.978,21.269,229.236,20.687z"/>
<path style="fill:#4F5565;" d="M313.859,81.972c-3.491-5.56-6.4-12.412-7.37-20.299c-2.004-16.679-18.166-24.889-18.166-24.889
	C279.725,19.071,270.61,32,270.61,32s-5.689,0.905-29.156-9.115c-3.297-1.422-7.499-2.133-12.283-2.263
	c-0.323,0.453-30.578,52.752-12.8,75.248c17.842,22.562,19.911,28.251,19.911,28.251c10.537-3.814,20.105-24.372,20.105-24.372
	c12.929,13.834,51.071,8.663,51.071,8.663C305.907,97.293,309.269,88.566,313.859,81.972z"/>
<g>
</g>
<g>
</g>
<g>
</g>
<g>
</g>
<g>
</g>
<g>
</g>
<g>
</g>
<g>
</g>
<g>
</g>
<g>
</g>
<g>
</g>
<g>
</g>
<g>
</g>
<g>
</g>
<g>
</g>
</svg>
