<?xml version="1.0" encoding="utf-8"?>
<svg xmlns="http://www.w3.org/2000/svg" xmlns:xlink="http://www.w3.org/1999/xlink" style="margin: auto; background: rgb(241, 242, 243); display: block; shape-rendering: auto;" width="242px" height="242px" viewBox="0 0 100 100" preserveAspectRatio="xMidYMid">
<g transform="rotate(0 50 50)">
  <rect x="47" y="19" rx="3" ry="6" width="6" height="12" fill="#93dbe9">
    <animate attributeName="opacity" values="1;0" keyTimes="0;1" dur="1.0989010989010988s" begin="-1.0073260073260073s" repeatCount="indefinite"></animate>
  </rect>
</g><g transform="rotate(30 50 50)">
  <rect x="47" y="19" rx="3" ry="6" width="6" height="12" fill="#93dbe9">
    <animate attributeName="opacity" values="1;0" keyTimes="0;1" dur="1.0989010989010988s" begin="-0.9157509157509157s" repeatCount="indefinite"></animate>
  </rect>
</g><g transform="rotate(60 50 50)">
  <rect x="47" y="19" rx="3" ry="6" width="6" height="12" fill="#93dbe9">
    <animate attributeName="opacity" values="1;0" keyTimes="0;1" dur="1.0989010989010988s" begin="-0.8241758241758241s" repeatCount="indefinite"></animate>
  </rect>
</g><g transform="rotate(90 50 50)">
  <rect x="47" y="19" rx="3" ry="6" width="6" height="12" fill="#93dbe9">
    <animate attributeName="opacity" values="1;0" keyTimes="0;1" dur="1.0989010989010988s" begin="-0.7326007326007326s" repeatCount="indefinite"></animate>
  </rect>
</g><g transform="rotate(120 50 50)">
  <rect x="47" y="19" rx="3" ry="6" width="6" height="12" fill="#93dbe9">
    <animate attributeName="opacity" values="1;0" keyTimes="0;1" dur="1.0989010989010988s" begin="-0.6410256410256411s" repeatCount="indefinite"></animate>
  </rect>
</g><g transform="rotate(150 50 50)">
  <rect x="47" y="19" rx="3" ry="6" width="6" height="12" fill="#93dbe9">
    <animate attributeName="opacity" values="1;0" keyTimes="0;1" dur="1.0989010989010988s" begin="-0.5494505494505495s" repeatCount="indefinite"></animate>
  </rect>
</g><g transform="rotate(180 50 50)">
  <rect x="47" y="19" rx="3" ry="6" width="6" height="12" fill="#93dbe9">
    <animate attributeName="opacity" values="1;0" keyTimes="0;1" dur="1.0989010989010988s" begin="-0.45787545787545786s" repeatCount="indefinite"></animate>
  </rect>
</g><g transform="rotate(210 50 50)">
  <rect x="47" y="19" rx="3" ry="6" width="6" height="12" fill="#93dbe9">
    <animate attributeName="opacity" values="1;0" keyTimes="0;1" dur="1.0989010989010988s" begin="-0.3663003663003663s" repeatCount="indefinite"></animate>
  </rect>
</g><g transform="rotate(240 50 50)">
  <rect x="47" y="19" rx="3" ry="6" width="6" height="12" fill="#93dbe9">
    <animate attributeName="opacity" values="1;0" keyTimes="0;1" dur="1.0989010989010988s" begin="-0.27472527472527475s" repeatCount="indefinite"></animate>
  </rect>
</g><g transform="rotate(270 50 50)">
  <rect x="47" y="19" rx="3" ry="6" width="6" height="12" fill="#93dbe9">
    <animate attributeName="opacity" values="1;0" keyTimes="0;1" dur="1.0989010989010988s" begin="-0.18315018315018314s" repeatCount="indefinite"></animate>
  </rect>
</g><g transform="rotate(300 50 50)">
  <rect x="47" y="19" rx="3" ry="6" width="6" height="12" fill="#93dbe9">
    <animate attributeName="opacity" values="1;0" keyTimes="0;1" dur="1.0989010989010988s" begin="-0.09157509157509157s" repeatCount="indefinite"></animate>
  </rect>
</g><g transform="rotate(330 50 50)">
  <rect x="47" y="19" rx="3" ry="6" width="6" height="12" fill="#93dbe9">
    <animate attributeName="opacity" values="1;0" keyTimes="0;1" dur="1.0989010989010988s" begin="0s" repeatCount="indefinite"></animate>
  </rect>
</g>
<!-- [ldio] generated by https://loading.io/ --></svg>