<?xml version="1.0" encoding="iso-8859-1"?>
<!-- Generator: Adobe Illustrator 19.0.0, SVG Export Plug-In . SVG Version: 6.00 Build 0)  -->
<svg version="1.1" id="Layer_1" xmlns="http://www.w3.org/2000/svg" xmlns:xlink="http://www.w3.org/1999/xlink" x="0px" y="0px"
	 viewBox="0 0 511.6 511.6" style="enable-background:new 0 0 511.6 511.6;" xml:space="preserve">
<g>
	
		<rect x="170.517" y="147.819" transform="matrix(-0.8303 -0.5573 0.5573 -0.8303 174.6107 616.5932)" style="fill:#434A54;" width="21.322" height="267.787"/>
	<polygon style="fill:#434A54;" points="396.158,400.265 246.932,176.44 264.668,164.621 413.895,388.446 	"/>
</g>
<path style="fill:#EC87C0;" d="M213.177,394.348c0,58.876-47.729,106.589-106.589,106.589C47.729,500.937,0,453.224,0,394.348
	c0-58.86,47.729-106.572,106.588-106.572C165.448,287.776,213.177,335.488,213.177,394.348z"/>
<path style="fill:#FFCE54;" d="M185.823,465.636v-7.025c0-8.166-5.246-15.41-13.052-17.986l-0.594-0.172
	c-8.587-2.295-11.476-4.512-15.301-5.964c-13.536-5.168-17.064-8.884-17.97-10.632c-0.031-0.078-0.062-0.141-0.078-0.203
	l-0.125-15.738l-32.116-0.358l-32.131,0.358l-0.109,15.738c-0.031,0.062-0.047,0.125-0.078,0.203
	c-0.905,1.748-4.434,5.464-17.97,10.632c-3.825,1.452-6.729,3.669-15.301,5.964l-0.594,0.172
	c-7.806,2.576-13.052,9.82-13.052,17.986v7.025c19.5,21.671,47.775,35.301,79.234,35.301
	C138.048,500.937,166.323,487.307,185.823,465.636z"/>
<path style="fill:#EAC6BB;" d="M151.163,389.133c0,28.962-27.604,55.613-44.575,55.613s-44.574-26.651-44.574-55.613
	s19.953-48.071,44.574-48.071C131.21,341.062,151.163,360.171,151.163,389.133z"/>
<path style="fill:#A0D468;" d="M511.6,394.348c0,58.876-47.713,106.589-106.572,106.589c-58.877,0-106.589-47.713-106.589-106.589
	c0-58.86,47.712-106.572,106.589-106.572C463.887,287.776,511.6,335.488,511.6,394.348z"/>
<path style="fill:#AC92EB;" d="M325.777,465.636c16.128,17.908,38.22,30.32,63.169,34.099l21.733,1.046
	c29.181-1.515,55.254-14.785,73.583-35.145v-7.025c0-8.166-5.262-15.41-13.068-17.986l-0.577-0.172
	c-8.587-2.295-11.491-4.512-15.3-5.964c-13.553-5.168-17.065-8.884-17.971-10.632c-0.031-0.078-0.062-0.141-0.094-0.203
	l-0.109-15.738l-32.115-0.358l-32.132,0.358l-0.108,15.738c-0.031,0.062-0.047,0.125-0.094,0.203
	c-0.891,1.748-4.419,5.464-17.971,10.632c-3.81,1.452-6.714,3.669-15.285,5.964l-0.594,0.172
	c-7.807,2.576-13.067,9.82-13.067,17.986L325.777,465.636L325.777,465.636z"/>
<path style="fill:#EAC6BB;" d="M449.602,389.133c0,28.962-27.619,55.613-44.574,55.613c-16.972,0-44.575-26.651-44.575-55.613
	s19.953-48.071,44.575-48.071C429.633,341.062,449.602,360.171,449.602,389.133z"/>
<path style="fill:#ED5564;" d="M394.363,149.211c0,76.519-62.029,138.564-138.563,138.564c-76.519,0-138.548-62.046-138.548-138.564
	S179.281,10.663,255.8,10.663C332.334,10.663,394.363,72.693,394.363,149.211z"/>
<path style="fill:#48CFAD;" d="M152.772,241.858c25.37,28.182,62.123,45.918,103.028,45.918c40.624,0,77.174-17.486,102.514-45.34
	v-4.435c-1.593-8.728-7.854-16.065-16.565-18.954l-0.766-0.219c-11.131-2.998-14.91-5.871-19.859-7.744
	c-17.596-6.714-22.17-11.538-23.34-13.817c-0.047-0.094-0.078-0.172-0.109-0.266l-0.156-20.422l-41.719-0.482l-41.718,0.483
	l-0.14,20.422c-0.047,0.094-0.078,0.172-0.109,0.266c-1.171,2.279-5.746,7.104-23.342,13.817c-4.965,1.873-8.728,4.746-19.875,7.744
	l-0.765,0.219c-8.696,2.888-14.957,10.226-16.55,18.954C153.302,238.001,153.036,239.813,152.772,241.858z"/>
<path style="fill:#EAC6BB;" d="M313.692,137.033c0,37.627-35.861,72.24-57.892,72.24c-22.029,0-57.893-34.613-57.893-72.24
	c0-37.611,25.918-62.42,57.893-62.42C287.776,74.613,313.692,99.422,313.692,137.033z"/>
<g>
</g>
<g>
</g>
<g>
</g>
<g>
</g>
<g>
</g>
<g>
</g>
<g>
</g>
<g>
</g>
<g>
</g>
<g>
</g>
<g>
</g>
<g>
</g>
<g>
</g>
<g>
</g>
<g>
</g>
</svg>
